<svg width="150" height="54" viewBox="0 0 150 54" fill="none" xmlns="http://www.w3.org/2000/svg">
<path d="M18.6914 0.48068C20.3053 -0.074822 22.0763 0.361646 23.7567 0.222771C24.6271 0.316016 25.6728 -0.0589484 26.3921 0.575911C25.8199 0.915164 25.1913 1.29608 25.0281 1.98649C24.0851 4.90485 24.0348 8.0117 24.0549 11.0471C24.061 19.959 24.0448 28.8708 24.063 37.7826C27.0208 36.7788 30.1317 35.6301 33.3051 36.3661C36.1722 37.0029 38.5779 38.8837 41.4471 39.4948C42.797 39.6158 44.7716 39.8538 45.4223 38.3461C45.6883 37.9671 45.7004 37.0744 46.3572 37.3977C46.5063 38.721 45.4687 39.8876 44.3102 40.4193C42.7043 41.2763 40.8043 41.2426 39.0454 41.0244C36.2407 40.3915 33.8168 38.721 31.0505 37.9751C27.7461 37.1319 24.4216 38.3421 21.4719 39.7408C20.6136 40.0542 19.5558 40.8577 18.7196 40.1058C19.3442 39.7785 19.9608 39.348 20.134 38.6298C20.8594 36.4593 20.9964 34.1461 21.0508 31.8784C21.0568 24.3395 21.0528 16.8005 21.0528 9.26158C21.0226 6.80943 20.9057 4.29976 20.0958 1.95871C19.8983 1.26037 19.2314 0.891354 18.6914 0.48068Z" fill="#545454"/>
<path d="M43.0732 0.591801C43.7442 -0.112496 44.8564 0.345796 45.7187 0.222792C47.385 0.363651 49.148 -0.076783 50.7478 0.476735C50.1675 0.911217 49.4865 1.33578 49.3092 2.08769C48.5697 4.46841 48.3783 6.98206 48.4126 9.45999C48.4327 15.7451 48.3743 22.0282 48.4428 28.3133C48.4791 32.3348 50.3267 36.5625 53.9736 38.6258C57.421 40.6653 61.8979 40.3915 65.3534 38.5227C68.4119 36.7986 70.2757 33.4696 70.7653 30.1009C70.8942 28.2677 71.1944 26.4008 70.9103 24.5756C70.3341 23.8435 69.101 23.9328 68.6537 22.9904C67.2212 21.6354 66.9713 19.6098 67.2615 17.7628C68.3555 19.0365 69.2602 20.447 70.2817 21.7723C70.6142 22.4171 70.6424 23.2166 70.9728 23.8316C71.0615 19.4253 70.9607 15.013 71.0252 10.6047C71.1803 10.6027 71.4926 10.6008 71.6478 10.5988C71.6558 13.781 71.6256 16.9613 71.6599 20.1415C71.9037 19.961 72.1475 19.7804 72.3913 19.5999C72.2139 16.8978 74.9723 14.7273 77.5916 14.642C76.7191 16.0645 75.5707 17.2906 74.5451 18.602C73.5599 19.2944 72.5121 19.9094 71.672 20.7883C71.5954 23.2979 71.7042 25.8096 71.6216 28.3193C71.4664 31.5511 70.3583 34.8385 68.0533 37.2053C65.8148 39.5484 62.5185 40.7328 59.2847 40.6971C55.6439 40.7705 51.7713 39.846 49.1057 37.2728C46.5086 34.896 45.4709 31.313 45.4004 27.9126C45.3823 21.2981 45.4145 14.6837 45.3843 8.07124C45.2291 5.97819 45.0982 3.83752 44.3789 1.84565C44.1995 1.21873 43.5971 0.905262 43.0732 0.591801Z" fill="#545454"/>
<path d="M82.0609 3.78395C84.8353 0.863599 89.1391 -0.160118 93.072 0.349754C96.5779 0.623537 100.094 2.16704 102.221 4.99613C104.041 7.34313 104.653 10.3409 104.794 13.2315C104.796 17.6596 104.768 22.0897 104.833 26.5179C104.859 27.6705 105.006 28.8192 105.27 29.9441C106.924 30.1782 108.488 30.7873 109.975 31.5214C113.499 22.183 116.904 12.795 120.359 3.43081C120.101 2.13926 119.011 0.9866 117.816 0.383483C119.263 -0.358508 121.099 0.238655 122.702 0.0541494C126.688 10.5472 130.564 21.0819 134.415 31.6245C135.321 34.0965 136.121 36.6161 137.223 39.0127C137.33 39.5127 138.636 39.7091 137.955 40.1554C136.095 40.2646 134.223 40.1515 132.357 40.2011C131.751 40.1674 131.048 40.338 130.566 39.8777C131.652 39.6456 132.384 38.7429 132.283 37.6299C132.265 33.295 130.232 29.3192 128.765 25.3255C127.25 25.9703 125.414 26.379 123.887 25.5457C121.683 24.4288 119.724 22.3337 117.043 22.5976C115.139 22.4568 113.503 23.9626 112.95 25.6588C112.243 27.7499 111.534 29.8429 110.698 31.8884C116.793 35.273 121.929 40.0324 127.177 44.5241C131.36 47.8987 136.663 50.46 142.206 49.8569C144.926 49.6922 148.285 48.2043 148.506 45.1708C148.428 42.306 145.285 40.707 142.659 41.0462C142.667 40.8875 142.682 40.5721 142.69 40.4134C144.894 40.2884 147.33 40.7248 148.903 42.3715C150.277 43.7603 150.41 46.258 149.018 47.6805C147.467 49.3966 145.101 50.087 142.865 50.4084C138.049 51.1544 133.141 49.5653 129.176 46.9108C125.845 44.7721 123.168 41.8358 120.063 39.4174C116.954 36.9792 113.956 34.3306 110.402 32.5252C109.271 35.3682 107.956 38.2231 105.86 40.5106C104.659 41.814 103.056 43.0441 101.164 42.9111C98.1656 42.806 95.8122 39.9194 96.0036 37.0367C96.0157 33.9398 98.2562 31.1107 101.252 30.2278C102.078 25.7322 101.716 21.1454 101.796 16.6022C101.871 12.4617 101.77 7.86292 98.8506 4.56562C94.8854 -0.316849 86.6084 -0.177971 82.4054 4.31366C80.2133 6.73208 79.1636 10.0175 79.224 13.2334C79.218 19.1852 79.1877 25.139 79.2381 31.0928C79.5 33.8941 79.8909 36.8006 81.2872 39.3004C81.5512 39.8856 82.3813 39.9848 82.5787 40.58C81.0636 40.8796 79.492 40.6336 77.9567 40.7129C76.9412 40.6514 75.8552 40.9133 74.9082 40.4471C75.5953 40.0721 76.3246 39.6575 76.6107 38.8877C77.9748 35.9614 78.3737 32.6919 78.5067 29.5037C78.5309 24.0122 78.5108 18.5226 78.5168 13.0311C78.6095 9.68814 79.6713 6.23808 82.0609 3.78395ZM119.803 7.00189C117.893 12.3446 115.836 17.6358 113.932 22.9785C115.763 21.6017 118.203 21.3438 120.403 21.812C123.256 22.6631 125.378 25.6866 128.646 24.9863C126.061 18.0584 123.637 11.069 120.937 4.18272C120.426 5.06557 120.156 6.05158 119.803 7.00189ZM101.502 30.8805C99.038 31.5948 97.1118 33.7632 96.7411 36.2689C96.1628 38.8084 97.8875 41.7009 100.529 42.2048C102.179 42.5838 103.817 41.7386 104.929 40.582C107.238 38.229 108.415 35.1043 109.749 32.1701C107.285 30.8032 104.277 29.9739 101.502 30.8805Z" fill="#545454"/>
<path d="M3.10066 1.62939C5.74011 -0.225587 10.0902 0.341821 11.7262 3.24432C12.921 5.31158 12.4838 8.00576 11.0472 9.85082C8.71402 13.2731 4.54127 14.8364 2.05496 18.106C3.31826 17.9611 4.55941 17.6437 5.82876 17.5604C7.80129 17.5306 9.38899 18.9174 11.2648 19.2547C12.0184 19.4213 12.5201 18.84 12.7759 18.229C13.0097 18.231 13.2414 18.2369 13.4751 18.2429C13.5476 19.7943 11.827 20.6018 10.4589 20.4986C8.64954 20.5224 7.19281 19.3043 5.49833 18.9075C3.70512 18.5583 2.08921 19.5106 0.497482 20.1554C0.13884 18.3599 1.45453 16.8263 2.76015 15.761C5.19408 13.6104 8.23045 11.9419 9.81412 9.01161C11.0109 6.865 10.7228 3.83355 8.68581 2.27616C7.12229 1.1473 4.71455 1.28419 3.2961 2.59557C1.88369 3.82958 1.05559 5.60321 0.759412 7.41851C0.507557 7.41851 0.2557 7.41852 0.00585938 7.41653C0.257715 5.2223 1.14425 2.88324 3.10066 1.62939Z" fill="#545454"/>
<path d="M2.56691 22.5202C4.73287 20.5522 8.39183 20.5264 10.6303 22.3933C12.9393 24.2978 12.8809 27.9146 11.1481 30.1723C8.85725 33.7176 4.51325 35.2392 2.06119 38.6139C4.03573 38.2588 6.19363 37.6339 8.11378 38.5405C9.30052 38.9274 10.3825 39.7844 11.6821 39.713C12.3006 39.7567 12.5162 39.098 12.7842 38.6794C13.0078 38.6873 13.2315 38.6972 13.4571 38.7072C13.572 40.2665 11.8231 41.08 10.4591 40.9411C8.39787 41.0561 6.81823 39.3559 4.8054 39.2885C3.23584 39.1793 1.92821 40.1614 0.47752 40.5661C0.269991 39.3023 0.846237 38.0703 1.75896 37.2034C4.31983 34.4913 8.03117 32.8367 9.82841 29.4501C10.8983 27.494 10.7593 24.8633 9.20179 23.1948C7.69872 21.6017 4.91219 21.6096 3.30031 23.04C1.97656 24.2046 1.18473 25.8473 0.826087 27.5396C0.826087 27.9959 0.306256 27.8709 0 27.98C0.209544 25.9663 0.940933 23.8495 2.56691 22.5202Z" fill="#545454"/>
<path d="M55.6035 53.4875C55.934 53.1165 56.8749 52.9201 56.6794 53.7038C56.3671 54.2295 55.9118 53.7137 55.6035 53.4875Z" fill="#545454"/>
<path d="M86.9104 53.8148C86.3684 53.5708 87.0212 53.1185 87.2308 52.8943C87.6982 53.2117 87.5632 54.3307 86.9104 53.8148Z" fill="#545454"/>
<path d="M67.0054 2.44679C68.6576 1.42307 70.7409 -0.144236 72.6873 1.18698C73.2635 2.04206 71.968 1.73059 71.4502 1.68099C70.7329 1.50243 70.3218 2.22062 69.9128 2.65708C69.5038 2.56582 69.0968 2.47258 68.6918 2.38132C68.579 3.0757 68.5468 3.77999 68.5568 4.48231C67.6481 4.30177 66.2236 3.52009 67.0054 2.44679Z" fill="#E86F8A"/>
<path d="M72.9893 2.07381C73.0497 0.917177 74.6495 1.23461 75.2761 1.78416C76.1002 2.49242 77.8491 2.89119 77.4763 4.26804C77.1136 5.90082 75.262 6.3611 74.1881 7.43639C73.9503 5.87702 75.9632 5.82941 76.217 4.52001C75.7436 5.24018 75.0243 5.72822 74.1861 5.95439C74.7986 5.01004 75.3567 3.94466 75.2439 2.78803C74.7744 2.02421 73.4708 2.74835 72.9893 2.07381Z" fill="#E86F8A"/>
<path d="M70.223 2.72655C70.5514 1.79211 71.6455 1.98059 72.4232 2.07582C72.0485 2.35555 71.6677 2.62338 71.2828 2.88923C71.2305 3.17889 71.1761 3.46854 71.1237 3.76216C70.7187 3.53599 69.9268 3.3376 70.223 2.72655Z" fill="#E86F8A"/>
<path d="M71.291 3.56967C71.4603 2.23845 73.5013 2.24242 74.0332 3.31374C74.0171 3.72045 73.6 3.89305 73.3361 4.13509C73.2031 3.48436 72.7236 2.84157 72.0224 3.32763C72.3528 3.40897 72.6833 3.49229 73.0157 3.57364C72.5241 4.13509 71.8491 3.86329 71.291 3.56967Z" fill="#E86F8A"/>
<path d="M69.5706 5.26197C68.4604 4.86915 68.6457 3.37525 68.9963 2.49835C69.6391 2.93879 70.1629 3.5419 70.852 3.91885C71.7869 4.2581 72.8044 4.25811 73.7715 4.47832C72.7318 5.37506 71.3194 5.63892 70.2193 6.45035C69.4879 5.83136 69.764 4.89693 69.8708 4.0855C70.6022 4.54974 71.4282 5.1846 72.351 4.87907C71.2086 4.64894 70.1649 4.13906 69.4074 3.25225C69.5081 3.91686 69.5605 4.58743 69.5706 5.26197Z" fill="#E86F8A"/>
<path d="M74.0961 2.64124C74.4104 2.63926 74.7247 2.63727 75.0411 2.63727C75.0128 3.75422 74.8496 5.40288 73.4997 5.69055C72.5789 5.90283 71.6944 6.22621 70.7998 6.52182C71.6561 5.56953 73.1793 5.58738 73.9268 4.5101C74.3862 3.97642 74.2089 3.25824 74.0961 2.64124Z" fill="#E86F8A"/>
<path d="M65.8066 4.03394C66.6831 3.56176 67.5273 4.32756 68.2748 4.71046C69.4172 5.30564 69.8625 6.57139 70.7732 7.40861C71.5671 8.22203 72.6208 8.71206 73.4772 9.45206C73.0158 10.0135 72.4355 10.5889 71.6477 10.5988C71.4925 10.6008 71.1802 10.6027 71.0251 10.6047C69.3669 10.4797 67.9162 9.25963 67.3984 7.72009C67.0417 6.63686 66.3668 5.69053 66.0122 4.6073C67.1203 4.99615 68.0774 5.67267 68.9397 6.44839C68.2728 5.22033 66.8685 4.81958 65.8066 4.03394Z" fill="#E86F8A"/>
<path d="M63.7959 6.14087C64.5817 5.91271 65.3937 5.79169 66.2117 5.74408C67.062 7.50185 67.6987 9.44809 69.4757 10.5531C68.2568 10.694 66.7597 10.198 66.4756 8.88267C66.2077 7.42844 64.3097 7.43042 63.7959 6.14087Z" fill="#E86F8A"/>
<path d="M70.6807 7.03169C71.6841 6.38095 72.8486 6.00401 74.0495 5.94647C74.0434 6.9801 73.7432 8.02762 72.9675 8.76168C72.1293 8.28752 71.3456 7.72408 70.6807 7.03169Z" fill="#E86F8A"/>
<path d="M73.636 8.59701C74.4863 7.87882 74.9598 6.63093 76.1445 6.38293C77.027 6.93447 77.4844 7.92644 77.8309 8.86285C76.3218 8.77358 74.9679 9.40447 73.6401 10.0195C73.5796 9.55723 73.1525 8.95808 73.636 8.59701Z" fill="#E86F8A"/>
</svg>
